<svg width="1280" height="320" viewBox="0 0 1280 320" fill="none" xmlns="http://www.w3.org/2000/svg">
<path d="M400 120H420V200H400" fill="#E5E5E5"/>
<path d="M400 120H460V140H400" fill="#E5E5E5"/>
<path d="M400 180H460V200H400" fill="#E5E5E5"/>
<path d="M440 160H460V200H440" fill="#E5E5E5"/>
<path d="M480 120H500V200H480" fill="#E5E5E5"/>
<path d="M480 120H540V140H480" fill="#E5E5E5"/>
<path d="M560 120H580V200H560" fill="#E5E5E5"/>
<path d="M560 120H620V140H560" fill="#E5E5E5"/>
<path d="M600 120H620V200H600" fill="#E5E5E5"/>
<path d="M560 160H620V180H560" fill="#E5E5E5"/>
<path d="M640 120H660V200H640" fill="#E5E5E5"/>
<path d="M640 120H700V140H640" fill="#E5E5E5"/>
<path d="M640 160H700V180H640" fill="#E5E5E5"/>
<path d="M680 120H700V180H680" fill="#E5E5E5"/>
<path d="M720 120H740V200H720" fill="#E5E5E5"/>
<path d="M720 160H780V180H720" fill="#E5E5E5"/>
<path d="M760 120H780V200H760" fill="#E5E5E5"/>
<path d="M380 60H420V100H380" fill="#E5E5E5"/>
<path d="M300 140H340V180H300" fill="#E5E5E5"/>
<path d="M380 220H420V260H380" fill="#E5E5E5"/>
<path d="M340 120H360V140H340" fill="#E5E5E5"/>
<path d="M340 180H360V200H340" fill="#E5E5E5"/>
<path d="M360 100H380V120H360" fill="#E5E5E5"/>
<path d="M360 200H380V220H360" fill="#E5E5E5"/>
<path d="M840 120H860V200H840" fill="#0284C7"/>
<path d="M840 120H900V140H840" fill="#0284C7"/>
<path d="M840 180H900V200H840" fill="#0284C7"/>
<path d="M880 160H900V200H880" fill="#0284C7"/>
<path d="M800 180H820V200H800" fill="#0284C7"/>
<path d="M920 120H940V200H920" fill="#0284C7"/>
<path d="M920 120H980V140H920" fill="#0284C7"/>
<path d="M960 120H980V200H960" fill="#0284C7"/>
<path d="M920 180H980V200H920" fill="#0284C7"/>
</svg>
