<svg width="960" height="1000" viewBox="0 0 960 1000" fill="none" xmlns="http://www.w3.org/2000/svg">
<g clip-path="url(#clip0_190_11932)">
<path d="M960 0H0V1000H960V0Z" fill="white"/>
<path d="M20 20H940V260H20" fill="#E6FCF5"/>
<path d="M20 20C324.84 20 629.66 20 940 20M20 20C309.76 20 599.5 20 940 20M20 20C20 158.8 20 209.4 20 260M20 20C20 104.58 20 182.3 20 260M940 20C940 83.64 940 147.28 940 260M940 20C940 75.02 940 130.06 940 260M940 260C668.54 260 397.08 260 20 260M940 260C601.88 260 263.74 260 20 260" stroke="#099268" stroke-width="8" stroke-linecap="round"/>
<path d="M20 260H940V500H20" fill="#E6FCF5"/>
<path d="M20 260C358.78 260 697.56 260 940 260M20 260C292.74 260 565.5 260 940 260M20 260C20 380.64 20 440.32 20 500M20 260C20 362.28 20 431.14 20 500M940 260C940 320.48 940 380.96 940 500M940 260C940 348.12 940 436.24 940 500M940 500C672.34 500 404.68 500 20 500M940 500C746.02 500 552.04 500 20 500" stroke="#099268" stroke-width="8" stroke-linecap="round"/>
<path d="M20 500H940V740H20" fill="#E6FCF5"/>
<path d="M20 500C213.96 500 407.92 500 940 500M20 500C317.88 500 615.76 500 940 500M20 500C20 588.7 20 664.36 20 740M20 500C20 584.18 20 662.08 20 740M940 500C940 584.94 940 669.88 940 740M940 500C940 593.34 940 686.68 940 740M940 740C621.98 740 303.98 740 20 740M940 740C597.28 740 254.56 740 20 740" stroke="#099268" stroke-width="8" stroke-linecap="round"/>
<path d="M20 740H940V980H20" fill="#FFF5F5"/>
<path d="M20 740C339.84 740 659.68 740 940 740M20 740C341.3 740 662.58 740 940 740M20 740C20 864.18 20 922.1 20 980M20 740C20 847.56 20 913.78 20 980M940 740C940 811.18 940 882.38 940 980M940 740C940 830.92 940 921.84 940 980M940 980C610 980 280 980 20 980M940 980C581.84 980 223.7 980 20 980" stroke="#E03131" stroke-width="8" stroke-linecap="round"/>
<path d="M74.168 115.635C71.1067 115.635 68.624 114.571 66.72 112.443C64.8533 110.315 63.92 107.459 63.92 103.875V95.531C63.92 91.9096 64.8533 89.035 66.72 86.9069C68.5867 84.779 71.0693 83.715 74.168 83.715C76.7067 83.715 78.7227 84.443 80.216 85.8989C81.7093 87.3176 82.456 89.2776 82.456 91.779L80.888 90.1549H82.512L82.288 82.8189V74.195H89.288V115.075H82.456V109.195H80.888L82.456 107.571C82.456 110.072 81.7093 112.051 80.216 113.507C78.7227 114.926 76.7067 115.635 74.168 115.635ZM76.632 109.587C78.424 109.587 79.8053 109.064 80.776 108.019C81.784 106.936 82.288 105.443 82.288 103.539V95.811C82.288 93.907 81.784 92.4323 80.776 91.387C79.8053 90.3043 78.424 89.7629 76.632 89.7629C74.84 89.7629 73.44 90.2856 72.432 91.3309C71.424 92.3763 70.92 93.8696 70.92 95.811V103.539C70.92 105.48 71.424 106.974 72.432 108.019C73.44 109.064 74.84 109.587 76.632 109.587ZM110.434 115.635C107.821 115.635 105.543 115.131 103.602 114.123C101.661 113.115 100.149 111.715 99.0661 109.923C98.0208 108.094 97.4981 105.966 97.4981 103.539V95.811C97.4981 93.3843 98.0208 91.275 99.0661 89.483C100.149 87.6536 101.661 86.2349 103.602 85.2269C105.543 84.219 107.821 83.715 110.434 83.715C113.01 83.715 115.25 84.219 117.154 85.2269C119.095 86.2349 120.589 87.6536 121.634 89.483C122.717 91.275 123.258 93.3843 123.258 95.811V101.355H104.274V103.539C104.274 105.704 104.797 107.347 105.842 108.467C106.887 109.55 108.437 110.091 110.49 110.091C112.058 110.091 113.327 109.83 114.298 109.307C115.269 108.747 115.885 107.944 116.146 106.899H123.034C122.511 109.55 121.093 111.678 118.778 113.283C116.501 114.851 113.719 115.635 110.434 115.635ZM116.482 97.4349V95.7549C116.482 93.627 115.978 92.003 114.97 90.883C113.962 89.7256 112.45 89.1469 110.434 89.1469C108.418 89.1469 106.887 89.7256 105.842 90.883C104.797 92.0403 104.274 93.683 104.274 95.811V96.987L116.986 96.875L116.482 97.4349ZM131.468 125.155V84.275H138.3V90.1549H139.868L138.3 91.779C138.3 89.2776 139.047 87.3176 140.54 85.8989C142.034 84.443 144.05 83.715 146.588 83.715C149.687 83.715 152.17 84.779 154.036 86.9069C155.903 89.035 156.836 91.891 156.836 95.4749V103.819C156.836 106.208 156.407 108.299 155.548 110.091C154.727 111.846 153.551 113.208 152.02 114.179C150.49 115.15 148.679 115.635 146.588 115.635C144.05 115.635 142.034 114.926 140.54 113.507C139.047 112.051 138.3 110.072 138.3 107.571L139.868 109.195H138.244L138.468 116.531V125.155H131.468ZM144.124 109.587C145.916 109.587 147.316 109.064 148.324 108.019C149.332 106.974 149.836 105.48 149.836 103.539V95.811C149.836 93.8696 149.332 92.3763 148.324 91.3309C147.316 90.2856 145.916 89.7629 144.124 89.7629C142.37 89.7629 140.988 90.3043 139.98 91.387C138.972 92.4323 138.468 93.907 138.468 95.811V103.539C138.468 105.443 138.972 106.936 139.98 108.019C140.988 109.064 142.37 109.587 144.124 109.587ZM180.894 115.075C177.945 115.075 175.63 114.254 173.95 112.611C172.308 110.968 171.486 108.71 171.486 105.835V90.603H163.142V84.275H171.486V75.5949H178.542V84.275H190.358V90.603H178.542V105.835C178.542 107.776 179.494 108.747 181.398 108.747H189.798V115.075H180.894ZM198.625 115.075V74.195H205.625V84.275L205.457 90.1549H207.361L205.457 91.779C205.457 89.2403 206.185 87.2616 207.641 85.843C209.134 84.4243 211.169 83.715 213.745 83.715C216.769 83.715 219.177 84.723 220.969 86.7389C222.798 88.7549 223.713 91.4616 223.713 94.8589V115.075H216.713V95.587C216.713 93.7203 216.227 92.2829 215.257 91.275C214.286 90.267 212.923 89.7629 211.169 89.7629C209.451 89.7629 208.089 90.2856 207.081 91.3309C206.11 92.3763 205.625 93.8696 205.625 95.811V115.075H198.625ZM244.691 93.123C243.123 93.123 241.853 92.6936 240.883 91.8349C239.949 90.939 239.483 89.8003 239.483 88.419C239.483 87.0003 239.949 85.8616 240.883 85.003C241.853 84.1443 243.123 83.715 244.691 83.715C246.259 83.715 247.509 84.1443 248.443 85.003C249.413 85.8616 249.899 87.0003 249.899 88.419C249.899 89.8003 249.413 90.939 248.443 91.8349C247.509 92.6936 246.259 93.123 244.691 93.123ZM244.691 115.635C243.123 115.635 241.853 115.206 240.883 114.347C239.949 113.488 239.483 112.35 239.483 110.931C239.483 109.512 239.949 108.374 240.883 107.515C241.853 106.656 243.123 106.227 244.691 106.227C246.259 106.227 247.509 106.656 248.443 107.515C249.413 108.374 249.899 109.512 249.899 110.931C249.899 112.35 249.413 113.488 248.443 114.347C247.509 115.206 246.259 115.635 244.691 115.635ZM278.269 115.635C275.618 115.635 273.322 115.131 271.381 114.123C269.439 113.115 267.927 111.696 266.845 109.867C265.799 108.038 265.277 105.891 265.277 103.427V85.843C265.277 83.379 265.799 81.2323 266.845 79.4029C267.927 77.5736 269.439 76.1549 271.381 75.1469C273.322 74.1389 275.618 73.635 278.269 73.635C280.957 73.635 283.253 74.1389 285.157 75.1469C287.098 76.1549 288.591 77.5736 289.637 79.4029C290.719 81.2323 291.261 83.379 291.261 85.843V103.427C291.261 105.891 290.719 108.038 289.637 109.867C288.591 111.696 287.098 113.115 285.157 114.123C283.215 115.131 280.919 115.635 278.269 115.635ZM278.269 109.587C280.21 109.587 281.759 109.027 282.917 107.907C284.074 106.787 284.653 105.294 284.653 103.427V85.843C284.653 83.9763 284.074 82.4829 282.917 81.3629C281.759 80.2429 280.21 79.6829 278.269 79.6829C276.327 79.6829 274.778 80.2429 273.621 81.3629C272.463 82.4829 271.885 83.9763 271.885 85.843V103.427C271.885 105.294 272.463 106.787 273.621 107.907C274.778 109.027 276.327 109.587 278.269 109.587ZM278.269 98.275C277.186 98.275 276.29 97.9203 275.581 97.211C274.909 96.5016 274.573 95.5869 274.573 94.4669C274.573 93.3469 274.909 92.4509 275.581 91.779C276.253 91.107 277.149 90.771 278.269 90.771C279.389 90.771 280.285 91.107 280.957 91.779C281.629 92.4509 281.965 93.3469 281.965 94.4669C281.965 95.5869 281.629 96.5016 280.957 97.211C280.285 97.9203 279.389 98.275 278.269 98.275Z" fill="#099268"/>
<path d="M74.168 355.635C71.1067 355.635 68.624 354.571 66.72 352.443C64.8533 350.315 63.92 347.459 63.92 343.875V335.531C63.92 331.91 64.8533 329.035 66.72 326.907C68.5867 324.779 71.0693 323.715 74.168 323.715C76.7067 323.715 78.7227 324.443 80.216 325.899C81.7093 327.318 82.456 329.278 82.456 331.779L80.888 330.155H82.512L82.288 322.819V314.195H89.288V355.075H82.456V349.195H80.888L82.456 347.571C82.456 350.072 81.7093 352.051 80.216 353.507C78.7227 354.926 76.7067 355.635 74.168 355.635ZM76.632 349.587C78.424 349.587 79.8053 349.064 80.776 348.019C81.784 346.936 82.288 345.443 82.288 343.539V335.811C82.288 333.907 81.784 332.432 80.776 331.387C79.8053 330.304 78.424 329.763 76.632 329.763C74.84 329.763 73.44 330.286 72.432 331.331C71.424 332.376 70.92 333.87 70.92 335.811V343.539C70.92 345.48 71.424 346.974 72.432 348.019C73.44 349.064 74.84 349.587 76.632 349.587ZM110.434 355.635C107.821 355.635 105.543 355.131 103.602 354.123C101.661 353.115 100.149 351.715 99.0661 349.923C98.0208 348.094 97.4981 345.966 97.4981 343.539V335.811C97.4981 333.384 98.0208 331.275 99.0661 329.483C100.149 327.654 101.661 326.235 103.602 325.227C105.543 324.219 107.821 323.715 110.434 323.715C113.01 323.715 115.25 324.219 117.154 325.227C119.095 326.235 120.589 327.654 121.634 329.483C122.717 331.275 123.258 333.384 123.258 335.811V341.355H104.274V343.539C104.274 345.704 104.797 347.347 105.842 348.467C106.887 349.55 108.437 350.091 110.49 350.091C112.058 350.091 113.327 349.83 114.298 349.307C115.269 348.747 115.885 347.944 116.146 346.899H123.034C122.511 349.55 121.093 351.678 118.778 353.283C116.501 354.851 113.719 355.635 110.434 355.635ZM116.482 337.435V335.755C116.482 333.627 115.978 332.003 114.97 330.883C113.962 329.726 112.45 329.147 110.434 329.147C108.418 329.147 106.887 329.726 105.842 330.883C104.797 332.04 104.274 333.683 104.274 335.811V336.987L116.986 336.875L116.482 337.435ZM131.468 365.155V324.275H138.3V330.155H139.868L138.3 331.779C138.3 329.278 139.047 327.318 140.54 325.899C142.034 324.443 144.05 323.715 146.588 323.715C149.687 323.715 152.17 324.779 154.036 326.907C155.903 329.035 156.836 331.891 156.836 335.475V343.819C156.836 346.208 156.407 348.299 155.548 350.091C154.727 351.846 153.551 353.208 152.02 354.179C150.49 355.15 148.679 355.635 146.588 355.635C144.05 355.635 142.034 354.926 140.54 353.507C139.047 352.051 138.3 350.072 138.3 347.571L139.868 349.195H138.244L138.468 356.531V365.155H131.468ZM144.124 349.587C145.916 349.587 147.316 349.064 148.324 348.019C149.332 346.974 149.836 345.48 149.836 343.539V335.811C149.836 333.87 149.332 332.376 148.324 331.331C147.316 330.286 145.916 329.763 144.124 329.763C142.37 329.763 140.988 330.304 139.98 331.387C138.972 332.432 138.468 333.907 138.468 335.811V343.539C138.468 345.443 138.972 346.936 139.98 348.019C140.988 349.064 142.37 349.587 144.124 349.587ZM180.894 355.075C177.945 355.075 175.63 354.254 173.95 352.611C172.308 350.968 171.486 348.71 171.486 345.835V330.603H163.142V324.275H171.486V315.595H178.542V324.275H190.358V330.603H178.542V345.835C178.542 347.776 179.494 348.747 181.398 348.747H189.798V355.075H180.894ZM198.625 355.075V314.195H205.625V324.275L205.457 330.155H207.361L205.457 331.779C205.457 329.24 206.185 327.262 207.641 325.843C209.134 324.424 211.169 323.715 213.745 323.715C216.769 323.715 219.177 324.723 220.969 326.739C222.798 328.755 223.713 331.462 223.713 334.859V355.075H216.713V335.587C216.713 333.72 216.227 332.283 215.257 331.275C214.286 330.267 212.923 329.763 211.169 329.763C209.451 329.763 208.089 330.286 207.081 331.331C206.11 332.376 205.625 333.87 205.625 335.811V355.075H198.625ZM244.691 333.123C243.123 333.123 241.853 332.694 240.883 331.835C239.949 330.939 239.483 329.8 239.483 328.419C239.483 327 239.949 325.862 240.883 325.003C241.853 324.144 243.123 323.715 244.691 323.715C246.259 323.715 247.509 324.144 248.443 325.003C249.413 325.862 249.899 327 249.899 328.419C249.899 329.8 249.413 330.939 248.443 331.835C247.509 332.694 246.259 333.123 244.691 333.123ZM244.691 355.635C243.123 355.635 241.853 355.206 240.883 354.347C239.949 353.488 239.483 352.35 239.483 350.931C239.483 349.512 239.949 348.374 240.883 347.515C241.853 346.656 243.123 346.227 244.691 346.227C246.259 346.227 247.509 346.656 248.443 347.515C249.413 348.374 249.899 349.512 249.899 350.931C249.899 352.35 249.413 353.488 248.443 354.347C247.509 355.206 246.259 355.635 244.691 355.635ZM266.173 355.075V348.915H276.813V320.411L266.117 328.363V320.971L275.525 314.195H283.813V348.915H292.381V355.075H266.173Z" fill="#099268"/>
<path d="M74.168 595.635C71.1067 595.635 68.624 594.571 66.72 592.443C64.8533 590.315 63.92 587.459 63.92 583.875V575.531C63.92 571.91 64.8533 569.035 66.72 566.907C68.5867 564.779 71.0693 563.715 74.168 563.715C76.7067 563.715 78.7227 564.443 80.216 565.899C81.7093 567.318 82.456 569.278 82.456 571.779L80.888 570.155H82.512L82.288 562.819V554.195H89.288V595.075H82.456V589.195H80.888L82.456 587.571C82.456 590.072 81.7093 592.051 80.216 593.507C78.7227 594.926 76.7067 595.635 74.168 595.635ZM76.632 589.587C78.424 589.587 79.8053 589.064 80.776 588.019C81.784 586.936 82.288 585.443 82.288 583.539V575.811C82.288 573.907 81.784 572.432 80.776 571.387C79.8053 570.304 78.424 569.763 76.632 569.763C74.84 569.763 73.44 570.286 72.432 571.331C71.424 572.376 70.92 573.87 70.92 575.811V583.539C70.92 585.48 71.424 586.974 72.432 588.019C73.44 589.064 74.84 589.587 76.632 589.587ZM110.434 595.635C107.821 595.635 105.543 595.131 103.602 594.123C101.661 593.115 100.149 591.715 99.0661 589.923C98.0208 588.094 97.4981 585.966 97.4981 583.539V575.811C97.4981 573.384 98.0208 571.275 99.0661 569.483C100.149 567.654 101.661 566.235 103.602 565.227C105.543 564.219 107.821 563.715 110.434 563.715C113.01 563.715 115.25 564.219 117.154 565.227C119.095 566.235 120.589 567.654 121.634 569.483C122.717 571.275 123.258 573.384 123.258 575.811V581.355H104.274V583.539C104.274 585.704 104.797 587.347 105.842 588.467C106.887 589.55 108.437 590.091 110.49 590.091C112.058 590.091 113.327 589.83 114.298 589.307C115.269 588.747 115.885 587.944 116.146 586.899H123.034C122.511 589.55 121.093 591.678 118.778 593.283C116.501 594.851 113.719 595.635 110.434 595.635ZM116.482 577.435V575.755C116.482 573.627 115.978 572.003 114.97 570.883C113.962 569.726 112.45 569.147 110.434 569.147C108.418 569.147 106.887 569.726 105.842 570.883C104.797 572.04 104.274 573.683 104.274 575.811V576.987L116.986 576.875L116.482 577.435ZM131.468 605.155V564.275H138.3V570.155H139.868L138.3 571.779C138.3 569.278 139.047 567.318 140.54 565.899C142.034 564.443 144.05 563.715 146.588 563.715C149.687 563.715 152.17 564.779 154.036 566.907C155.903 569.035 156.836 571.891 156.836 575.475V583.819C156.836 586.208 156.407 588.299 155.548 590.091C154.727 591.846 153.551 593.208 152.02 594.179C150.49 595.15 148.679 595.635 146.588 595.635C144.05 595.635 142.034 594.926 140.54 593.507C139.047 592.051 138.3 590.072 138.3 587.571L139.868 589.195H138.244L138.468 596.531V605.155H131.468ZM144.124 589.587C145.916 589.587 147.316 589.064 148.324 588.019C149.332 586.974 149.836 585.48 149.836 583.539V575.811C149.836 573.87 149.332 572.376 148.324 571.331C147.316 570.286 145.916 569.763 144.124 569.763C142.37 569.763 140.988 570.304 139.98 571.387C138.972 572.432 138.468 573.907 138.468 575.811V583.539C138.468 585.443 138.972 586.936 139.98 588.019C140.988 589.064 142.37 589.587 144.124 589.587ZM180.894 595.075C177.945 595.075 175.63 594.254 173.95 592.611C172.308 590.968 171.486 588.71 171.486 585.835V570.603H163.142V564.275H171.486V555.595H178.542V564.275H190.358V570.603H178.542V585.835C178.542 587.776 179.494 588.747 181.398 588.747H189.798V595.075H180.894ZM198.625 595.075V554.195H205.625V564.275L205.457 570.155H207.361L205.457 571.779C205.457 569.24 206.185 567.262 207.641 565.843C209.134 564.424 211.169 563.715 213.745 563.715C216.769 563.715 219.177 564.723 220.969 566.739C222.798 568.755 223.713 571.462 223.713 574.859V595.075H216.713V575.587C216.713 573.72 216.227 572.283 215.257 571.275C214.286 570.267 212.923 569.763 211.169 569.763C209.451 569.763 208.089 570.286 207.081 571.331C206.11 572.376 205.625 573.87 205.625 575.811V595.075H198.625ZM244.691 573.123C243.123 573.123 241.853 572.694 240.883 571.835C239.949 570.939 239.483 569.8 239.483 568.419C239.483 567 239.949 565.862 240.883 565.003C241.853 564.144 243.123 563.715 244.691 563.715C246.259 563.715 247.509 564.144 248.443 565.003C249.413 565.862 249.899 567 249.899 568.419C249.899 569.8 249.413 570.939 248.443 571.835C247.509 572.694 246.259 573.123 244.691 573.123ZM244.691 595.635C243.123 595.635 241.853 595.206 240.883 594.347C239.949 593.488 239.483 592.35 239.483 590.931C239.483 589.512 239.949 588.374 240.883 587.515C241.853 586.656 243.123 586.227 244.691 586.227C246.259 586.227 247.509 586.656 248.443 587.515C249.413 588.374 249.899 589.512 249.899 590.931C249.899 592.35 249.413 593.488 248.443 594.347C247.509 595.206 246.259 595.635 244.691 595.635ZM265.893 595.075V588.299L278.661 575.475C280.453 573.646 281.778 572.003 282.637 570.547C283.495 569.054 283.925 567.523 283.925 565.955C283.925 564.051 283.402 562.576 282.357 561.531C281.311 560.448 279.893 559.907 278.101 559.907C276.122 559.907 274.573 560.486 273.453 561.643C272.333 562.763 271.773 564.331 271.773 566.347H264.773C264.81 563.734 265.37 561.494 266.453 559.627C267.573 557.723 269.141 556.248 271.157 555.203C273.173 554.158 275.525 553.635 278.213 553.635C280.789 553.635 283.029 554.12 284.933 555.091C286.837 556.062 288.311 557.424 289.357 559.179C290.402 560.934 290.925 563.024 290.925 565.451C290.925 567.952 290.271 570.398 288.965 572.787C287.695 575.139 285.642 577.678 282.805 580.403L274.293 588.747H291.429V595.075H265.893Z" fill="#099268"/>
<path d="M74.168 835.635C71.1067 835.635 68.624 834.571 66.72 832.443C64.8533 830.315 63.92 827.459 63.92 823.875V815.531C63.92 811.91 64.8533 809.035 66.72 806.907C68.5867 804.779 71.0693 803.715 74.168 803.715C76.7067 803.715 78.7227 804.443 80.216 805.899C81.7093 807.318 82.456 809.278 82.456 811.779L80.888 810.155H82.512L82.288 802.819V794.195H89.288V835.075H82.456V829.195H80.888L82.456 827.571C82.456 830.072 81.7093 832.051 80.216 833.507C78.7227 834.926 76.7067 835.635 74.168 835.635ZM76.632 829.587C78.424 829.587 79.8053 829.064 80.776 828.019C81.784 826.936 82.288 825.443 82.288 823.539V815.811C82.288 813.907 81.784 812.432 80.776 811.387C79.8053 810.304 78.424 809.763 76.632 809.763C74.84 809.763 73.44 810.286 72.432 811.331C71.424 812.376 70.92 813.87 70.92 815.811V823.539C70.92 825.48 71.424 826.974 72.432 828.019C73.44 829.064 74.84 829.587 76.632 829.587ZM110.434 835.635C107.821 835.635 105.543 835.131 103.602 834.123C101.661 833.115 100.149 831.715 99.0661 829.923C98.0208 828.094 97.4981 825.966 97.4981 823.539V815.811C97.4981 813.384 98.0208 811.275 99.0661 809.483C100.149 807.654 101.661 806.235 103.602 805.227C105.543 804.219 107.821 803.715 110.434 803.715C113.01 803.715 115.25 804.219 117.154 805.227C119.095 806.235 120.589 807.654 121.634 809.483C122.717 811.275 123.258 813.384 123.258 815.811V821.355H104.274V823.539C104.274 825.704 104.797 827.347 105.842 828.467C106.887 829.55 108.437 830.091 110.49 830.091C112.058 830.091 113.327 829.83 114.298 829.307C115.269 828.747 115.885 827.944 116.146 826.899H123.034C122.511 829.55 121.093 831.678 118.778 833.283C116.501 834.851 113.719 835.635 110.434 835.635ZM116.482 817.435V815.755C116.482 813.627 115.978 812.003 114.97 810.883C113.962 809.726 112.45 809.147 110.434 809.147C108.418 809.147 106.887 809.726 105.842 810.883C104.797 812.04 104.274 813.683 104.274 815.811V816.987L116.986 816.875L116.482 817.435ZM131.468 845.155V804.275H138.3V810.155H139.868L138.3 811.779C138.3 809.278 139.047 807.318 140.54 805.899C142.034 804.443 144.05 803.715 146.588 803.715C149.687 803.715 152.17 804.779 154.036 806.907C155.903 809.035 156.836 811.891 156.836 815.475V823.819C156.836 826.208 156.407 828.299 155.548 830.091C154.727 831.846 153.551 833.208 152.02 834.179C150.49 835.15 148.679 835.635 146.588 835.635C144.05 835.635 142.034 834.926 140.54 833.507C139.047 832.051 138.3 830.072 138.3 827.571L139.868 829.195H138.244L138.468 836.531V845.155H131.468ZM144.124 829.587C145.916 829.587 147.316 829.064 148.324 828.019C149.332 826.974 149.836 825.48 149.836 823.539V815.811C149.836 813.87 149.332 812.376 148.324 811.331C147.316 810.286 145.916 809.763 144.124 809.763C142.37 809.763 140.988 810.304 139.98 811.387C138.972 812.432 138.468 813.907 138.468 815.811V823.539C138.468 825.443 138.972 826.936 139.98 828.019C140.988 829.064 142.37 829.587 144.124 829.587ZM180.894 835.075C177.945 835.075 175.63 834.254 173.95 832.611C172.308 830.968 171.486 828.71 171.486 825.835V810.603H163.142V804.275H171.486V795.595H178.542V804.275H190.358V810.603H178.542V825.835C178.542 827.776 179.494 828.747 181.398 828.747H189.798V835.075H180.894ZM198.625 835.075V794.195H205.625V804.275L205.457 810.155H207.361L205.457 811.779C205.457 809.24 206.185 807.262 207.641 805.843C209.134 804.424 211.169 803.715 213.745 803.715C216.769 803.715 219.177 804.723 220.969 806.739C222.798 808.755 223.713 811.462 223.713 814.859V835.075H216.713V815.587C216.713 813.72 216.227 812.283 215.257 811.275C214.286 810.267 212.923 809.763 211.169 809.763C209.451 809.763 208.089 810.286 207.081 811.331C206.11 812.376 205.625 813.87 205.625 815.811V835.075H198.625ZM244.691 813.123C243.123 813.123 241.853 812.694 240.883 811.835C239.949 810.939 239.483 809.8 239.483 808.419C239.483 807 239.949 805.862 240.883 805.003C241.853 804.144 243.123 803.715 244.691 803.715C246.259 803.715 247.509 804.144 248.443 805.003C249.413 805.862 249.899 807 249.899 808.419C249.899 809.8 249.413 810.939 248.443 811.835C247.509 812.694 246.259 813.123 244.691 813.123ZM244.691 835.635C243.123 835.635 241.853 835.206 240.883 834.347C239.949 833.488 239.483 832.35 239.483 830.931C239.483 829.512 239.949 828.374 240.883 827.515C241.853 826.656 243.123 826.227 244.691 826.227C246.259 826.227 247.509 826.656 248.443 827.515C249.413 828.374 249.899 829.512 249.899 830.931C249.899 832.35 249.413 833.488 248.443 834.347C247.509 835.206 246.259 835.635 244.691 835.635ZM277.877 835.635C275.226 835.635 272.911 835.15 270.933 834.179C268.991 833.208 267.479 831.846 266.397 830.091C265.314 828.336 264.773 826.264 264.773 823.875H271.829C271.829 825.704 272.351 827.142 273.397 828.187C274.479 829.195 275.991 829.699 277.933 829.699C279.874 829.699 281.367 829.176 282.413 828.131C283.458 827.086 283.981 825.667 283.981 823.875V820.683C283.981 818.854 283.458 817.435 282.413 816.427C281.367 815.382 279.874 814.859 277.933 814.859H273.341V808.531L282.357 800.187H266.621V794.195H289.469V800.523L277.933 811.107V808.867C281.965 808.867 285.157 809.931 287.509 812.059C289.861 814.187 291.037 817.062 291.037 820.683V823.875C291.037 826.264 290.495 828.336 289.413 830.091C288.33 831.846 286.799 833.208 284.821 834.179C282.842 835.15 280.527 835.635 277.877 835.635Z" fill="#E03131"/>
<path d="M660 620C660 623.8 659.72 627.62 659.18 631.38C658.64 635.14 657.82 638.9 656.76 642.54C655.7 646.18 654.34 649.78 652.78 653.24C651.2 656.68 649.36 660.06 647.3 663.26C645.24 666.44 642.94 669.52 640.46 672.38C637.98 675.26 635.26 677.98 632.38 680.46C629.52 682.94 626.44 685.24 623.26 687.3C620.06 689.36 616.68 691.2 613.24 692.78C609.78 694.34 606.18 695.7 602.54 696.76C598.9 697.82 595.14 698.64 591.38 699.18C587.62 699.72 583.8 700 580 700C576.2 700 572.38 699.72 568.62 699.18C564.86 698.64 561.1 697.82 557.46 696.76C553.82 695.7 550.22 694.34 546.76 692.78C543.32 691.2 539.94 689.36 536.74 687.3C533.56 685.24 530.48 682.94 527.62 680.46C524.74 677.98 522.02 675.26 519.54 672.38C517.06 669.52 514.76 666.44 512.7 663.26C510.64 660.06 508.8 656.68 507.22 653.24C505.66 649.78 504.3 646.18 503.24 642.54C502.18 638.9 501.36 635.14 500.82 631.38C500.28 627.62 500 623.8 500 620C500 616.2 500.28 612.38 500.82 608.62C501.36 604.86 502.18 601.1 503.24 597.46C504.3 593.82 505.66 590.22 507.22 586.76C508.8 583.32 510.64 579.94 512.7 576.74C514.76 573.56 517.06 570.48 519.54 567.62C522.02 564.74 524.74 562.02 527.62 559.54C530.48 557.06 533.56 554.76 536.74 552.7C539.94 550.64 543.32 548.8 546.76 547.22C550.22 545.66 553.82 544.3 557.46 543.24C561.1 542.18 564.86 541.36 568.62 540.82C572.38 540.28 576.2 540 580 540C583.8 540 587.62 540.28 591.38 540.82C595.14 541.36 598.9 542.18 602.54 543.24C606.18 544.3 609.78 545.66 613.24 547.22C616.68 548.8 620.06 550.64 623.26 552.7C626.44 554.76 629.52 557.06 632.38 559.54C635.26 562.02 637.98 564.74 640.46 567.62C642.94 570.48 645.24 573.56 647.3 576.74C649.36 579.94 651.2 583.32 652.78 586.76C654.34 590.22 655.7 593.82 656.76 597.46C657.82 601.1 658.64 604.86 659.18 608.62C659.72 612.38 659.86 618.1 660 620C660.14 621.9 660.14 618.1 660 620Z" fill="white"/>
<path d="M660 620C660 623.8 659.72 627.62 659.18 631.38C658.64 635.14 657.82 638.9 656.76 642.54C655.7 646.18 654.34 649.78 652.78 653.24C651.2 656.68 649.36 660.06 647.3 663.26C645.24 666.44 642.94 669.52 640.46 672.38C637.98 675.26 635.26 677.98 632.38 680.46C629.52 682.94 626.44 685.24 623.26 687.3C620.06 689.36 616.68 691.2 613.24 692.78C609.78 694.34 606.18 695.7 602.54 696.76C598.9 697.82 595.14 698.64 591.38 699.18C587.62 699.72 583.8 700 580 700C576.2 700 572.38 699.72 568.62 699.18C564.86 698.64 561.1 697.82 557.46 696.76C553.82 695.7 550.22 694.34 546.76 692.78C543.32 691.2 539.94 689.36 536.74 687.3C533.56 685.24 530.48 682.94 527.62 680.46C524.74 677.98 522.02 675.26 519.54 672.38C517.06 669.52 514.76 666.44 512.7 663.26C510.64 660.06 508.8 656.68 507.22 653.24C505.66 649.78 504.3 646.18 503.24 642.54C502.18 638.9 501.36 635.14 500.82 631.38C500.28 627.62 500 623.8 500 620C500 616.2 500.28 612.38 500.82 608.62C501.36 604.86 502.18 601.1 503.24 597.46C504.3 593.82 505.66 590.22 507.22 586.76C508.8 583.32 510.64 579.94 512.7 576.74C514.76 573.56 517.06 570.48 519.54 567.62C522.02 564.74 524.74 562.02 527.62 559.54C530.48 557.06 533.56 554.76 536.74 552.7C539.94 550.64 543.32 548.8 546.76 547.22C550.22 545.66 553.82 544.3 557.46 543.24C561.1 542.18 564.86 541.36 568.62 540.82C572.38 540.28 576.2 540 580 540C583.8 540 587.62 540.28 591.38 540.82C595.14 541.36 598.9 542.18 602.54 543.24C606.18 544.3 609.78 545.66 613.24 547.22C616.68 548.8 620.06 550.64 623.26 552.7C626.44 554.76 629.52 557.06 632.38 559.54C635.26 562.02 637.98 564.74 640.46 567.62C642.94 570.48 645.24 573.56 647.3 576.74C649.36 579.94 651.2 583.32 652.78 586.76C654.34 590.22 655.7 593.82 656.76 597.46C657.82 601.1 658.64 604.86 659.18 608.62C659.72 612.38 659.86 618.1 660 620ZM660 620C660.14 618.1 660.14 621.9 660 620Z" stroke="#1E1E1E" stroke-width="8" stroke-linecap="round"/>
<path d="M580.051 642.466C577.4 642.466 575.085 641.981 573.107 641.01C571.165 640.04 569.653 638.677 568.571 636.922C567.488 635.168 566.947 633.096 566.947 630.706H574.003C574.003 632.536 574.525 633.973 575.571 635.018C576.653 636.026 578.165 636.53 580.107 636.53C582.048 636.53 583.541 636.008 584.587 634.962C585.632 633.917 586.155 632.498 586.155 630.706V627.514C586.155 625.685 585.632 624.266 584.587 623.258C583.541 622.213 582.048 621.69 580.107 621.69H575.515V615.362L584.531 607.018H568.795V601.026H591.643V607.354L580.107 617.938V615.698C584.139 615.698 587.331 616.762 589.683 618.89C592.035 621.018 593.211 623.893 593.211 627.514V630.706C593.211 633.096 592.669 635.168 591.587 636.922C590.504 638.677 588.973 640.04 586.995 641.01C585.016 641.981 582.701 642.466 580.051 642.466Z" fill="#1E1E1E"/>
<path d="M540 860C540 863.8 539.72 867.62 539.18 871.38C538.64 875.14 537.82 878.9 536.76 882.54C535.7 886.18 534.34 889.78 532.78 893.24C531.2 896.68 529.36 900.06 527.3 903.26C525.24 906.44 522.94 909.52 520.46 912.38C517.98 915.26 515.26 917.98 512.38 920.46C509.52 922.94 506.44 925.24 503.26 927.3C500.06 929.36 496.68 931.2 493.24 932.78C489.78 934.34 486.18 935.7 482.54 936.76C478.9 937.82 475.14 938.64 471.38 939.18C467.62 939.72 463.8 940 460 940C456.2 940 452.38 939.72 448.62 939.18C444.86 938.64 441.1 937.82 437.46 936.76C433.82 935.7 430.22 934.34 426.76 932.78C423.32 931.2 419.94 929.36 416.74 927.3C413.56 925.24 410.48 922.94 407.62 920.46C404.74 917.98 402.02 915.26 399.54 912.38C397.06 909.52 394.76 906.44 392.7 903.26C390.64 900.06 388.8 896.68 387.22 893.24C385.66 889.78 384.3 886.18 383.24 882.54C382.18 878.9 381.36 875.14 380.82 871.38C380.28 867.62 380 863.8 380 860C380 856.2 380.28 852.38 380.82 848.62C381.36 844.86 382.18 841.1 383.24 837.46C384.3 833.82 385.66 830.22 387.22 826.76C388.8 823.32 390.64 819.94 392.7 816.74C394.76 813.56 397.06 810.48 399.54 807.62C402.02 804.74 404.74 802.02 407.62 799.54C410.48 797.06 413.56 794.76 416.74 792.7C419.94 790.64 423.32 788.8 426.76 787.22C430.22 785.66 433.82 784.3 437.46 783.24C441.1 782.18 444.86 781.36 448.62 780.82C452.38 780.28 456.2 780 460 780C463.8 780 467.62 780.28 471.38 780.82C475.14 781.36 478.9 782.18 482.54 783.24C486.18 784.3 489.78 785.66 493.24 787.22C496.68 788.8 500.06 790.64 503.26 792.7C506.44 794.76 509.52 797.06 512.38 799.54C515.26 802.02 517.98 804.74 520.46 807.62C522.94 810.48 525.24 813.56 527.3 816.74C529.36 819.94 531.2 823.32 532.78 826.76C534.34 830.22 535.7 833.82 536.76 837.46C537.82 841.1 538.64 844.86 539.18 848.62C539.72 852.38 539.86 858.1 540 860C540.14 861.9 540.14 858.1 540 860Z" fill="white"/>
<path d="M540 860C540 863.8 539.72 867.62 539.18 871.38C538.64 875.14 537.82 878.9 536.76 882.54C535.7 886.18 534.34 889.78 532.78 893.24C531.2 896.68 529.36 900.06 527.3 903.26C525.24 906.44 522.94 909.52 520.46 912.38C517.98 915.26 515.26 917.98 512.38 920.46C509.52 922.94 506.44 925.24 503.26 927.3C500.06 929.36 496.68 931.2 493.24 932.78C489.78 934.34 486.18 935.7 482.54 936.76C478.9 937.82 475.14 938.64 471.38 939.18C467.62 939.72 463.8 940 460 940C456.2 940 452.38 939.72 448.62 939.18C444.86 938.64 441.1 937.82 437.46 936.76C433.82 935.7 430.22 934.34 426.76 932.78C423.32 931.2 419.94 929.36 416.74 927.3C413.56 925.24 410.48 922.94 407.62 920.46C404.74 917.98 402.02 915.26 399.54 912.38C397.06 909.52 394.76 906.44 392.7 903.26C390.64 900.06 388.8 896.68 387.22 893.24C385.66 889.78 384.3 886.18 383.24 882.54C382.18 878.9 381.36 875.14 380.82 871.38C380.28 867.62 380 863.8 380 860C380 856.2 380.28 852.38 380.82 848.62C381.36 844.86 382.18 841.1 383.24 837.46C384.3 833.82 385.66 830.22 387.22 826.76C388.8 823.32 390.64 819.94 392.7 816.74C394.76 813.56 397.06 810.48 399.54 807.62C402.02 804.74 404.74 802.02 407.62 799.54C410.48 797.06 413.56 794.76 416.74 792.7C419.94 790.64 423.32 788.8 426.76 787.22C430.22 785.66 433.82 784.3 437.46 783.24C441.1 782.18 444.86 781.36 448.62 780.82C452.38 780.28 456.2 780 460 780C463.8 780 467.62 780.28 471.38 780.82C475.14 781.36 478.9 782.18 482.54 783.24C486.18 784.3 489.78 785.66 493.24 787.22C496.68 788.8 500.06 790.64 503.26 792.7C506.44 794.76 509.52 797.06 512.38 799.54C515.26 802.02 517.98 804.74 520.46 807.62C522.94 810.48 525.24 813.56 527.3 816.74C529.36 819.94 531.2 823.32 532.78 826.76C534.34 830.22 535.7 833.82 536.76 837.46C537.82 841.1 538.64 844.86 539.18 848.62C539.72 852.38 539.86 858.1 540 860ZM540 860C540.14 858.1 540.14 861.9 540 860Z" stroke="#1E1E1E" stroke-width="8" stroke-linecap="round"/>
<path d="M460.387 882.466C456.616 882.466 453.592 881.533 451.315 879.666C449.037 877.762 447.787 875.186 447.563 871.938H454.563C454.712 873.357 455.272 874.458 456.243 875.242C457.251 875.989 458.632 876.362 460.387 876.362C462.328 876.362 463.803 875.858 464.811 874.85C465.819 873.805 466.323 872.368 466.323 870.538V866.562C466.323 864.696 465.819 863.277 464.811 862.306C463.803 861.298 462.328 860.794 460.387 860.794C459.192 860.794 458.165 861.037 457.307 861.522C456.448 862.008 455.795 862.68 455.347 863.538H448.515L448.795 841.026H471.811V847.354H455.403L455.291 859.226H456.915L455.235 860.626C455.235 858.909 455.907 857.565 457.251 856.594C458.632 855.586 460.48 855.082 462.795 855.082C466.117 855.045 468.693 856.053 470.523 858.106C472.389 860.122 473.323 862.941 473.323 866.562V870.538C473.323 874.234 472.165 877.146 469.851 879.274C467.573 881.402 464.419 882.466 460.387 882.466Z" fill="#1E1E1E"/>
<path d="M780 860C780 863.8 779.72 867.62 779.18 871.38C778.64 875.14 777.82 878.9 776.76 882.54C775.7 886.18 774.34 889.78 772.78 893.24C771.2 896.68 769.36 900.06 767.3 903.26C765.24 906.44 762.94 909.52 760.46 912.38C757.98 915.26 755.26 917.98 752.38 920.46C749.52 922.94 746.44 925.24 743.26 927.3C740.06 929.36 736.68 931.2 733.24 932.78C729.78 934.34 726.18 935.7 722.54 936.76C718.9 937.82 715.14 938.64 711.38 939.18C707.62 939.72 703.8 940 700 940C696.2 940 692.38 939.72 688.62 939.18C684.86 938.64 681.1 937.82 677.46 936.76C673.82 935.7 670.22 934.34 666.76 932.78C663.32 931.2 659.94 929.36 656.74 927.3C653.56 925.24 650.48 922.94 647.62 920.46C644.74 917.98 642.02 915.26 639.54 912.38C637.06 909.52 634.76 906.44 632.7 903.26C630.64 900.06 628.8 896.68 627.22 893.24C625.66 889.78 624.3 886.18 623.24 882.54C622.18 878.9 621.36 875.14 620.82 871.38C620.28 867.62 620 863.8 620 860C620 856.2 620.28 852.38 620.82 848.62C621.36 844.86 622.18 841.1 623.24 837.46C624.3 833.82 625.66 830.22 627.22 826.76C628.8 823.32 630.64 819.94 632.7 816.74C634.76 813.56 637.06 810.48 639.54 807.62C642.02 804.74 644.74 802.02 647.62 799.54C650.48 797.06 653.56 794.76 656.74 792.7C659.94 790.64 663.32 788.8 666.76 787.22C670.22 785.66 673.82 784.3 677.46 783.24C681.1 782.18 684.86 781.36 688.62 780.82C692.38 780.28 696.2 780 700 780C703.8 780 707.62 780.28 711.38 780.82C715.14 781.36 718.9 782.18 722.54 783.24C726.18 784.3 729.78 785.66 733.24 787.22C736.68 788.8 740.06 790.64 743.26 792.7C746.44 794.76 749.52 797.06 752.38 799.54C755.26 802.02 757.98 804.74 760.46 807.62C762.94 810.48 765.24 813.56 767.3 816.74C769.36 819.94 771.2 823.32 772.78 826.76C774.34 830.22 775.7 833.82 776.76 837.46C777.82 841.1 778.64 844.86 779.18 848.62C779.72 852.38 779.86 858.1 780 860C780.14 861.9 780.14 858.1 780 860Z" fill="white"/>
<path d="M780 860C780 863.8 779.72 867.62 779.18 871.38C778.64 875.14 777.82 878.9 776.76 882.54C775.7 886.18 774.34 889.78 772.78 893.24C771.2 896.68 769.36 900.06 767.3 903.26C765.24 906.44 762.94 909.52 760.46 912.38C757.98 915.26 755.26 917.98 752.38 920.46C749.52 922.94 746.44 925.24 743.26 927.3C740.06 929.36 736.68 931.2 733.24 932.78C729.78 934.34 726.18 935.7 722.54 936.76C718.9 937.82 715.14 938.64 711.38 939.18C707.62 939.72 703.8 940 700 940C696.2 940 692.38 939.72 688.62 939.18C684.86 938.64 681.1 937.82 677.46 936.76C673.82 935.7 670.22 934.34 666.76 932.78C663.32 931.2 659.94 929.36 656.74 927.3C653.56 925.24 650.48 922.94 647.62 920.46C644.74 917.98 642.02 915.26 639.54 912.38C637.06 909.52 634.76 906.44 632.7 903.26C630.64 900.06 628.8 896.68 627.22 893.24C625.66 889.78 624.3 886.18 623.24 882.54C622.18 878.9 621.36 875.14 620.82 871.38C620.28 867.62 620 863.8 620 860C620 856.2 620.28 852.38 620.82 848.62C621.36 844.86 622.18 841.1 623.24 837.46C624.3 833.82 625.66 830.22 627.22 826.76C628.8 823.32 630.64 819.94 632.7 816.74C634.76 813.56 637.06 810.48 639.54 807.62C642.02 804.74 644.74 802.02 647.62 799.54C650.48 797.06 653.56 794.76 656.74 792.7C659.94 790.64 663.32 788.8 666.76 787.22C670.22 785.66 673.82 784.3 677.46 783.24C681.1 782.18 684.86 781.36 688.62 780.82C692.38 780.28 696.2 780 700 780C703.8 780 707.62 780.28 711.38 780.82C715.14 781.36 718.9 782.18 722.54 783.24C726.18 784.3 729.78 785.66 733.24 787.22C736.68 788.8 740.06 790.64 743.26 792.7C746.44 794.76 749.52 797.06 752.38 799.54C755.26 802.02 757.98 804.74 760.46 807.62C762.94 810.48 765.24 813.56 767.3 816.74C769.36 819.94 771.2 823.32 772.78 826.76C774.34 830.22 775.7 833.82 776.76 837.46C777.82 841.1 778.64 844.86 779.18 848.62C779.72 852.38 779.86 858.1 780 860ZM780 860C780.14 858.1 780.14 861.9 780 860Z" stroke="#1E1E1E" stroke-width="8" stroke-linecap="round"/>
<path d="M700.443 882.466C697.717 882.466 695.309 881.906 693.219 880.786C691.165 879.629 689.56 878.024 688.403 875.97C687.283 873.88 686.723 871.472 686.723 868.746C686.723 866.805 687.04 864.77 687.675 862.642C688.347 860.514 689.261 858.517 690.419 856.65L700.051 841.026H707.835L695.739 860.066L696.075 860.29C696.821 859.133 697.829 858.256 699.099 857.658C700.368 857.061 701.787 856.762 703.355 856.762C705.557 856.762 707.461 857.285 709.067 858.33C710.672 859.376 711.923 860.832 712.819 862.698C713.715 864.565 714.163 866.749 714.163 869.25C714.163 871.901 713.584 874.216 712.427 876.194C711.307 878.173 709.72 879.722 707.667 880.842C705.651 881.925 703.243 882.466 700.443 882.466ZM700.443 876.53C702.496 876.53 704.157 875.877 705.427 874.57C706.696 873.226 707.331 871.49 707.331 869.362C707.331 867.16 706.696 865.405 705.427 864.098C704.157 862.754 702.496 862.082 700.443 862.082C698.389 862.082 696.728 862.754 695.459 864.098C694.189 865.405 693.555 867.16 693.555 869.362C693.555 871.49 694.189 873.226 695.459 874.57C696.728 875.877 698.389 876.53 700.443 876.53Z" fill="#1E1E1E"/>
<path d="M780 380C780 383.8 779.72 387.62 779.18 391.38C778.64 395.14 777.82 398.9 776.76 402.54C775.7 406.18 774.34 409.78 772.78 413.24C771.2 416.68 769.36 420.06 767.3 423.26C765.24 426.44 762.94 429.52 760.46 432.38C757.98 435.26 755.26 437.98 752.38 440.46C749.52 442.94 746.44 445.24 743.26 447.3C740.06 449.36 736.68 451.2 733.24 452.78C729.78 454.34 726.18 455.7 722.54 456.76C718.9 457.82 715.14 458.64 711.38 459.18C707.62 459.72 703.8 460 700 460C696.2 460 692.38 459.72 688.62 459.18C684.86 458.64 681.1 457.82 677.46 456.76C673.82 455.7 670.22 454.34 666.76 452.78C663.32 451.2 659.94 449.36 656.74 447.3C653.56 445.24 650.48 442.94 647.62 440.46C644.74 437.98 642.02 435.26 639.54 432.38C637.06 429.52 634.76 426.44 632.7 423.26C630.64 420.06 628.8 416.68 627.22 413.24C625.66 409.78 624.3 406.18 623.24 402.54C622.18 398.9 621.36 395.14 620.82 391.38C620.28 387.62 620 383.8 620 380C620 376.2 620.28 372.38 620.82 368.62C621.36 364.86 622.18 361.1 623.24 357.46C624.3 353.82 625.66 350.22 627.22 346.76C628.8 343.32 630.64 339.94 632.7 336.74C634.76 333.56 637.06 330.48 639.54 327.62C642.02 324.74 644.74 322.02 647.62 319.54C650.48 317.06 653.56 314.76 656.74 312.7C659.94 310.64 663.32 308.8 666.76 307.22C670.22 305.66 673.82 304.3 677.46 303.24C681.1 302.18 684.86 301.36 688.62 300.82C692.38 300.28 696.2 300 700 300C703.8 300 707.62 300.28 711.38 300.82C715.14 301.36 718.9 302.18 722.54 303.24C726.18 304.3 729.78 305.66 733.24 307.22C736.68 308.8 740.06 310.64 743.26 312.7C746.44 314.76 749.52 317.06 752.38 319.54C755.26 322.02 757.98 324.74 760.46 327.62C762.94 330.48 765.24 333.56 767.3 336.74C769.36 339.94 771.2 343.32 772.78 346.76C774.34 350.22 775.7 353.82 776.76 357.46C777.82 361.1 778.64 364.86 779.18 368.62C779.72 372.38 779.86 378.1 780 380C780.14 381.9 780.14 378.1 780 380Z" fill="white"/>
<path d="M780 380C780 383.8 779.72 387.62 779.18 391.38C778.64 395.14 777.82 398.9 776.76 402.54C775.7 406.18 774.34 409.78 772.78 413.24C771.2 416.68 769.36 420.06 767.3 423.26C765.24 426.44 762.94 429.52 760.46 432.38C757.98 435.26 755.26 437.98 752.38 440.46C749.52 442.94 746.44 445.24 743.26 447.3C740.06 449.36 736.68 451.2 733.24 452.78C729.78 454.34 726.18 455.7 722.54 456.76C718.9 457.82 715.14 458.64 711.38 459.18C707.62 459.72 703.8 460 700 460C696.2 460 692.38 459.72 688.62 459.18C684.86 458.64 681.1 457.82 677.46 456.76C673.82 455.7 670.22 454.34 666.76 452.78C663.32 451.2 659.94 449.36 656.74 447.3C653.56 445.24 650.48 442.94 647.62 440.46C644.74 437.98 642.02 435.26 639.54 432.38C637.06 429.52 634.76 426.44 632.7 423.26C630.64 420.06 628.8 416.68 627.22 413.24C625.66 409.78 624.3 406.18 623.24 402.54C622.18 398.9 621.36 395.14 620.82 391.38C620.28 387.62 620 383.8 620 380C620 376.2 620.28 372.38 620.82 368.62C621.36 364.86 622.18 361.1 623.24 357.46C624.3 353.82 625.66 350.22 627.22 346.76C628.8 343.32 630.64 339.94 632.7 336.74C634.76 333.56 637.06 330.48 639.54 327.62C642.02 324.74 644.74 322.02 647.62 319.54C650.48 317.06 653.56 314.76 656.74 312.7C659.94 310.64 663.32 308.8 666.76 307.22C670.22 305.66 673.82 304.3 677.46 303.24C681.1 302.18 684.86 301.36 688.62 300.82C692.38 300.28 696.2 300 700 300C703.8 300 707.62 300.28 711.38 300.82C715.14 301.36 718.9 302.18 722.54 303.24C726.18 304.3 729.78 305.66 733.24 307.22C736.68 308.8 740.06 310.64 743.26 312.7C746.44 314.76 749.52 317.06 752.38 319.54C755.26 322.02 757.98 324.74 760.46 327.62C762.94 330.48 765.24 333.56 767.3 336.74C769.36 339.94 771.2 343.32 772.78 346.76C774.34 350.22 775.7 353.82 776.76 357.46C777.82 361.1 778.64 364.86 779.18 368.62C779.72 372.38 779.86 378.1 780 380ZM780 380C780.14 378.1 780.14 381.9 780 380Z" stroke="#1E1E1E" stroke-width="8" stroke-linecap="round"/>
<path d="M688.067 401.906V395.13L700.835 382.306C702.627 380.477 703.952 378.834 704.811 377.378C705.669 375.885 706.099 374.354 706.099 372.786C706.099 370.882 705.576 369.408 704.531 368.362C703.485 367.28 702.067 366.738 700.275 366.738C698.296 366.738 696.747 367.317 695.627 368.474C694.507 369.594 693.947 371.162 693.947 373.178H686.947C686.984 370.565 687.544 368.325 688.627 366.458C689.747 364.554 691.315 363.08 693.331 362.034C695.347 360.989 697.699 360.466 700.387 360.466C702.963 360.466 705.203 360.952 707.107 361.922C709.011 362.893 710.485 364.256 711.531 366.01C712.576 367.765 713.099 369.856 713.099 372.282C713.099 374.784 712.445 377.229 711.139 379.618C709.869 381.97 707.816 384.509 704.979 387.234L696.467 395.578H713.603V401.906H688.067Z" fill="#1E1E1E"/>
<path d="M900 620C900 623.8 899.72 627.62 899.18 631.38C898.64 635.14 897.82 638.9 896.76 642.54C895.7 646.18 894.34 649.78 892.78 653.24C891.2 656.68 889.36 660.06 887.3 663.26C885.24 666.44 882.94 669.52 880.46 672.38C877.98 675.26 875.26 677.98 872.38 680.46C869.52 682.94 866.44 685.24 863.26 687.3C860.06 689.36 856.68 691.2 853.24 692.78C849.78 694.34 846.18 695.7 842.54 696.76C838.9 697.82 835.14 698.64 831.38 699.18C827.62 699.72 823.8 700 820 700C816.2 700 812.38 699.72 808.62 699.18C804.86 698.64 801.1 697.82 797.46 696.76C793.82 695.7 790.22 694.34 786.76 692.78C783.32 691.2 779.94 689.36 776.74 687.3C773.56 685.24 770.48 682.94 767.62 680.46C764.74 677.98 762.02 675.26 759.54 672.38C757.06 669.52 754.76 666.44 752.7 663.26C750.64 660.06 748.8 656.68 747.22 653.24C745.66 649.78 744.3 646.18 743.24 642.54C742.18 638.9 741.36 635.14 740.82 631.38C740.28 627.62 740 623.8 740 620C740 616.2 740.28 612.38 740.82 608.62C741.36 604.86 742.18 601.1 743.24 597.46C744.3 593.82 745.66 590.22 747.22 586.76C748.8 583.32 750.64 579.94 752.7 576.74C754.76 573.56 757.06 570.48 759.54 567.62C762.02 564.74 764.74 562.02 767.62 559.54C770.48 557.06 773.56 554.76 776.74 552.7C779.94 550.64 783.32 548.8 786.76 547.22C790.22 545.66 793.82 544.3 797.46 543.24C801.1 542.18 804.86 541.36 808.62 540.82C812.38 540.28 816.2 540 820 540C823.8 540 827.62 540.28 831.38 540.82C835.14 541.36 838.9 542.18 842.54 543.24C846.18 544.3 849.78 545.66 853.24 547.22C856.68 548.8 860.06 550.64 863.26 552.7C866.44 554.76 869.52 557.06 872.38 559.54C875.26 562.02 877.98 564.74 880.46 567.62C882.94 570.48 885.24 573.56 887.3 576.74C889.36 579.94 891.2 583.32 892.78 586.76C894.34 590.22 895.7 593.82 896.76 597.46C897.82 601.1 898.64 604.86 899.18 608.62C899.72 612.38 899.86 618.1 900 620C900.14 621.9 900.14 618.1 900 620Z" fill="white"/>
<path d="M900 620C900 623.8 899.72 627.62 899.18 631.38C898.64 635.14 897.82 638.9 896.76 642.54C895.7 646.18 894.34 649.78 892.78 653.24C891.2 656.68 889.36 660.06 887.3 663.26C885.24 666.44 882.94 669.52 880.46 672.38C877.98 675.26 875.26 677.98 872.38 680.46C869.52 682.94 866.44 685.24 863.26 687.3C860.06 689.36 856.68 691.2 853.24 692.78C849.78 694.34 846.18 695.7 842.54 696.76C838.9 697.82 835.14 698.64 831.38 699.18C827.62 699.72 823.8 700 820 700C816.2 700 812.38 699.72 808.62 699.18C804.86 698.64 801.1 697.82 797.46 696.76C793.82 695.7 790.22 694.34 786.76 692.78C783.32 691.2 779.94 689.36 776.74 687.3C773.56 685.24 770.48 682.94 767.62 680.46C764.74 677.98 762.02 675.26 759.54 672.38C757.06 669.52 754.76 666.44 752.7 663.26C750.64 660.06 748.8 656.68 747.22 653.24C745.66 649.78 744.3 646.18 743.24 642.54C742.18 638.9 741.36 635.14 740.82 631.38C740.28 627.62 740 623.8 740 620C740 616.2 740.28 612.38 740.82 608.62C741.36 604.86 742.18 601.1 743.24 597.46C744.3 593.82 745.66 590.22 747.22 586.76C748.8 583.32 750.64 579.94 752.7 576.74C754.76 573.56 757.06 570.48 759.54 567.62C762.02 564.74 764.74 562.02 767.62 559.54C770.48 557.06 773.56 554.76 776.74 552.7C779.94 550.64 783.32 548.8 786.76 547.22C790.22 545.66 793.82 544.3 797.46 543.24C801.1 542.18 804.86 541.36 808.62 540.82C812.38 540.28 816.2 540 820 540C823.8 540 827.62 540.28 831.38 540.82C835.14 541.36 838.9 542.18 842.54 543.24C846.18 544.3 849.78 545.66 853.24 547.22C856.68 548.8 860.06 550.64 863.26 552.7C866.44 554.76 869.52 557.06 872.38 559.54C875.26 562.02 877.98 564.74 880.46 567.62C882.94 570.48 885.24 573.56 887.3 576.74C889.36 579.94 891.2 583.32 892.78 586.76C894.34 590.22 895.7 593.82 896.76 597.46C897.82 601.1 898.64 604.86 899.18 608.62C899.72 612.38 899.86 618.1 900 620ZM900 620C900.14 618.1 900.14 621.9 900 620Z" stroke="#1E1E1E" stroke-width="8" stroke-linecap="round"/>
<path d="M825.483 641.906V633.786H807.283V623.65L823.019 601.026H830.859L814.003 625.498V627.626H825.483V618.386H832.483V641.906H825.483Z" fill="#1E1E1E"/>
<path d="M540 380C540 383.8 539.72 387.62 539.18 391.38C538.64 395.14 537.82 398.9 536.76 402.54C535.7 406.18 534.34 409.78 532.78 413.24C531.2 416.68 529.36 420.06 527.3 423.26C525.24 426.44 522.94 429.52 520.46 432.38C517.98 435.26 515.26 437.98 512.38 440.46C509.52 442.94 506.44 445.24 503.26 447.3C500.06 449.36 496.68 451.2 493.24 452.78C489.78 454.34 486.18 455.7 482.54 456.76C478.9 457.82 475.14 458.64 471.38 459.18C467.62 459.72 463.8 460 460 460C456.2 460 452.38 459.72 448.62 459.18C444.86 458.64 441.1 457.82 437.46 456.76C433.82 455.7 430.22 454.34 426.76 452.78C423.32 451.2 419.94 449.36 416.74 447.3C413.56 445.24 410.48 442.94 407.62 440.46C404.74 437.98 402.02 435.26 399.54 432.38C397.06 429.52 394.76 426.44 392.7 423.26C390.64 420.06 388.8 416.68 387.22 413.24C385.66 409.78 384.3 406.18 383.24 402.54C382.18 398.9 381.36 395.14 380.82 391.38C380.28 387.62 380 383.8 380 380C380 376.2 380.28 372.38 380.82 368.62C381.36 364.86 382.18 361.1 383.24 357.46C384.3 353.82 385.66 350.22 387.22 346.76C388.8 343.32 390.64 339.94 392.7 336.74C394.76 333.56 397.06 330.48 399.54 327.62C402.02 324.74 404.74 322.02 407.62 319.54C410.48 317.06 413.56 314.76 416.74 312.7C419.94 310.64 423.32 308.8 426.76 307.22C430.22 305.66 433.82 304.3 437.46 303.24C441.1 302.18 444.86 301.36 448.62 300.82C452.38 300.28 456.2 300 460 300C463.8 300 467.62 300.28 471.38 300.82C475.14 301.36 478.9 302.18 482.54 303.24C486.18 304.3 489.78 305.66 493.24 307.22C496.68 308.8 500.06 310.64 503.26 312.7C506.44 314.76 509.52 317.06 512.38 319.54C515.26 322.02 517.98 324.74 520.46 327.62C522.94 330.48 525.24 333.56 527.3 336.74C529.36 339.94 531.2 343.32 532.78 346.76C534.34 350.22 535.7 353.82 536.76 357.46C537.82 361.1 538.64 364.86 539.18 368.62C539.72 372.38 539.86 378.1 540 380C540.14 381.9 540.14 378.1 540 380Z" fill="white"/>
<path d="M540 380C540 383.8 539.72 387.62 539.18 391.38C538.64 395.14 537.82 398.9 536.76 402.54C535.7 406.18 534.34 409.78 532.78 413.24C531.2 416.68 529.36 420.06 527.3 423.26C525.24 426.44 522.94 429.52 520.46 432.38C517.98 435.26 515.26 437.98 512.38 440.46C509.52 442.94 506.44 445.24 503.26 447.3C500.06 449.36 496.68 451.2 493.24 452.78C489.78 454.34 486.18 455.7 482.54 456.76C478.9 457.82 475.14 458.64 471.38 459.18C467.62 459.72 463.8 460 460 460C456.2 460 452.38 459.72 448.62 459.18C444.86 458.64 441.1 457.82 437.46 456.76C433.82 455.7 430.22 454.34 426.76 452.78C423.32 451.2 419.94 449.36 416.74 447.3C413.56 445.24 410.48 442.94 407.62 440.46C404.74 437.98 402.02 435.26 399.54 432.38C397.06 429.52 394.76 426.44 392.7 423.26C390.64 420.06 388.8 416.68 387.22 413.24C385.66 409.78 384.3 406.18 383.24 402.54C382.18 398.9 381.36 395.14 380.82 391.38C380.28 387.62 380 383.8 380 380C380 376.2 380.28 372.38 380.82 368.62C381.36 364.86 382.18 361.1 383.24 357.46C384.3 353.82 385.66 350.22 387.22 346.76C388.8 343.32 390.64 339.94 392.7 336.74C394.76 333.56 397.06 330.48 399.54 327.62C402.02 324.74 404.74 322.02 407.62 319.54C410.48 317.06 413.56 314.76 416.74 312.7C419.94 310.64 423.32 308.8 426.76 307.22C430.22 305.66 433.82 304.3 437.46 303.24C441.1 302.18 444.86 301.36 448.62 300.82C452.38 300.28 456.2 300 460 300C463.8 300 467.62 300.28 471.38 300.82C475.14 301.36 478.9 302.18 482.54 303.24C486.18 304.3 489.78 305.66 493.24 307.22C496.68 308.8 500.06 310.64 503.26 312.7C506.44 314.76 509.52 317.06 512.38 319.54C515.26 322.02 517.98 324.74 520.46 327.62C522.94 330.48 525.24 333.56 527.3 336.74C529.36 339.94 531.2 343.32 532.78 346.76C534.34 350.22 535.7 353.82 536.76 357.46C537.82 361.1 538.64 364.86 539.18 368.62C539.72 372.38 539.86 378.1 540 380ZM540 380C540.14 378.1 540.14 381.9 540 380Z" stroke="#1E1E1E" stroke-width="8" stroke-linecap="round"/>
<path d="M448.347 401.906V395.746H458.987V367.242L448.291 375.194V367.802L457.699 361.026H465.987V395.746H474.555V401.906H448.347Z" fill="#1E1E1E"/>
<path d="M660 140C660 143.8 659.72 147.62 659.18 151.38C658.64 155.14 657.82 158.9 656.76 162.54C655.7 166.18 654.34 169.78 652.78 173.24C651.2 176.68 649.36 180.06 647.3 183.26C645.24 186.44 642.94 189.52 640.46 192.38C637.98 195.26 635.26 197.98 632.38 200.46C629.52 202.94 626.44 205.24 623.26 207.3C620.06 209.36 616.68 211.2 613.24 212.78C609.78 214.34 606.18 215.7 602.54 216.76C598.9 217.82 595.14 218.64 591.38 219.18C587.62 219.72 583.8 220 580 220C576.2 220 572.38 219.72 568.62 219.18C564.86 218.64 561.1 217.82 557.46 216.76C553.82 215.7 550.22 214.34 546.76 212.78C543.32 211.2 539.94 209.36 536.74 207.3C533.56 205.24 530.48 202.94 527.62 200.46C524.74 197.98 522.02 195.26 519.54 192.38C517.06 189.52 514.76 186.44 512.7 183.26C510.64 180.06 508.8 176.68 507.22 173.24C505.66 169.78 504.3 166.18 503.24 162.54C502.18 158.9 501.36 155.14 500.82 151.38C500.28 147.62 500 143.8 500 140C500 136.2 500.28 132.38 500.82 128.62C501.36 124.86 502.18 121.1 503.24 117.46C504.3 113.82 505.66 110.22 507.22 106.76C508.8 103.32 510.64 99.94 512.7 96.74C514.76 93.56 517.06 90.48 519.54 87.62C522.02 84.74 524.74 82.02 527.62 79.54C530.48 77.06 533.56 74.76 536.74 72.7C539.94 70.64 543.32 68.8 546.76 67.22C550.22 65.66 553.82 64.3 557.46 63.24C561.1 62.18 564.86 61.36 568.62 60.82C572.38 60.28 576.2 60 580 60C583.8 60 587.62 60.28 591.38 60.82C595.14 61.36 598.9 62.18 602.54 63.24C606.18 64.3 609.78 65.66 613.24 67.22C616.68 68.8 620.06 70.64 623.26 72.7C626.44 74.76 629.52 77.06 632.38 79.54C635.26 82.02 637.98 84.74 640.46 87.62C642.94 90.48 645.24 93.56 647.3 96.74C649.36 99.94 651.2 103.32 652.78 106.76C654.34 110.22 655.7 113.82 656.76 117.46C657.82 121.1 658.64 124.86 659.18 128.62C659.72 132.38 659.86 138.1 660 140C660.14 141.9 660.14 138.1 660 140Z" fill="white"/>
<path d="M660 140C660 143.8 659.72 147.62 659.18 151.38C658.64 155.14 657.82 158.9 656.76 162.54C655.7 166.18 654.34 169.78 652.78 173.24C651.2 176.68 649.36 180.06 647.3 183.26C645.24 186.44 642.94 189.52 640.46 192.38C637.98 195.26 635.26 197.98 632.38 200.46C629.52 202.94 626.44 205.24 623.26 207.3C620.06 209.36 616.68 211.2 613.24 212.78C609.78 214.34 606.18 215.7 602.54 216.76C598.9 217.82 595.14 218.64 591.38 219.18C587.62 219.72 583.8 220 580 220C576.2 220 572.38 219.72 568.62 219.18C564.86 218.64 561.1 217.82 557.46 216.76C553.82 215.7 550.22 214.34 546.76 212.78C543.32 211.2 539.94 209.36 536.74 207.3C533.56 205.24 530.48 202.94 527.62 200.46C524.74 197.98 522.02 195.26 519.54 192.38C517.06 189.52 514.76 186.44 512.7 183.26C510.64 180.06 508.8 176.68 507.22 173.24C505.66 169.78 504.3 166.18 503.24 162.54C502.18 158.9 501.36 155.14 500.82 151.38C500.28 147.62 500 143.8 500 140C500 136.2 500.28 132.38 500.82 128.62C501.36 124.86 502.18 121.1 503.24 117.46C504.3 113.82 505.66 110.22 507.22 106.76C508.8 103.32 510.64 99.94 512.7 96.74C514.76 93.56 517.06 90.48 519.54 87.62C522.02 84.74 524.74 82.02 527.62 79.54C530.48 77.06 533.56 74.76 536.74 72.7C539.94 70.64 543.32 68.8 546.76 67.22C550.22 65.66 553.82 64.3 557.46 63.24C561.1 62.18 564.86 61.36 568.62 60.82C572.38 60.28 576.2 60 580 60C583.8 60 587.62 60.28 591.38 60.82C595.14 61.36 598.9 62.18 602.54 63.24C606.18 64.3 609.78 65.66 613.24 67.22C616.68 68.8 620.06 70.64 623.26 72.7C626.44 74.76 629.52 77.06 632.38 79.54C635.26 82.02 637.98 84.74 640.46 87.62C642.94 90.48 645.24 93.56 647.3 96.74C649.36 99.94 651.2 103.32 652.78 106.76C654.34 110.22 655.7 113.82 656.76 117.46C657.82 121.1 658.64 124.86 659.18 128.62C659.72 132.38 659.86 138.1 660 140ZM660 140C660.14 138.1 660.14 141.9 660 140Z" stroke="#1E1E1E" stroke-width="8" stroke-linecap="round"/>
<path d="M580.443 162.466C577.792 162.466 575.496 161.962 573.555 160.954C571.613 159.946 570.101 158.528 569.019 156.698C567.973 154.869 567.451 152.722 567.451 150.258V132.674C567.451 130.21 567.973 128.064 569.019 126.234C570.101 124.405 571.613 122.986 573.555 121.978C575.496 120.97 577.792 120.466 580.443 120.466C583.131 120.466 585.427 120.97 587.331 121.978C589.272 122.986 590.765 124.405 591.811 126.234C592.893 128.064 593.435 130.21 593.435 132.674V150.258C593.435 152.722 592.893 154.869 591.811 156.698C590.765 158.528 589.272 159.946 587.331 160.954C585.389 161.962 583.093 162.466 580.443 162.466ZM580.443 156.418C582.384 156.418 583.933 155.858 585.091 154.738C586.248 153.618 586.827 152.125 586.827 150.258V132.674C586.827 130.808 586.248 129.314 585.091 128.194C583.933 127.074 582.384 126.514 580.443 126.514C578.501 126.514 576.952 127.074 575.795 128.194C574.637 129.314 574.059 130.808 574.059 132.674V150.258C574.059 152.125 574.637 153.618 575.795 154.738C576.952 155.858 578.501 156.418 580.443 156.418ZM580.443 145.106C579.36 145.106 578.464 144.752 577.755 144.042C577.083 143.333 576.747 142.418 576.747 141.298C576.747 140.178 577.083 139.282 577.755 138.61C578.427 137.938 579.323 137.602 580.443 137.602C581.563 137.602 582.459 137.938 583.131 138.61C583.803 139.282 584.139 140.178 584.139 141.298C584.139 142.418 583.803 143.333 583.131 144.042C582.459 144.752 581.563 145.106 580.443 145.106Z" fill="#1E1E1E"/>
<path d="M540 220C529.96 240.08 519.92 260.18 500 300ZM540 220C531.72 236.56 523.44 253.14 500 300Z" stroke="#1E1E1E" stroke-width="8" stroke-linecap="round" stroke-linejoin="round"/>
<path fill-rule="evenodd" clip-rule="evenodd" d="M500 300L500.82 270.02L523.5 281.36L500 300Z" fill="#1E1E1E"/>
<path d="M500 300C500.2 292.46 500.42 284.94 500.82 270.02M500 300C500.16 293.8 500.34 287.58 500.82 270.02M500 300C507.3 294.2 515.4 287.78 523.5 281.36M500 300C513.16 289.56 518.34 285.46 523.5 281.36M500.82 270.02C507.14 273.16 513.44 276.32 523.5 281.36M500.82 270.02C508.52 273.86 516.22 277.72 523.5 281.36" stroke="#1E1E1E" stroke-width="8" stroke-linecap="round" stroke-linejoin="round"/>
<path d="M620 220C631.74 243.48 643.48 266.94 660 300ZM620 220C630.12 240.22 640.22 260.46 660 300Z" stroke="#1E1E1E" stroke-width="8" stroke-linecap="round" stroke-linejoin="round"/>
<path fill-rule="evenodd" clip-rule="evenodd" d="M660 300L636.5 281.36L659.18 270.02L660 300Z" fill="#1E1E1E"/>
<path d="M660 300C653.1 294.52 646.2 289.06 636.5 281.36M660 300C654.06 295.28 648.12 290.56 636.5 281.36M660 300C659.56 283.8 659.36 276.9 659.18 270.02M660 300C659.76 291.38 659.48 280.7 659.18 270.02M636.5 281.36C641.4 278.9 646.32 276.44 659.18 270.02M636.5 281.36C645.4 276.9 654.28 272.46 659.18 270.02" stroke="#1E1E1E" stroke-width="8" stroke-linecap="round" stroke-linejoin="round"/>
<path d="M660 460C647.36 485.26 634.74 510.54 620 540ZM660 460C650.04 479.94 640.06 499.86 620 540Z" stroke="#1E1E1E" stroke-width="8" stroke-linecap="round" stroke-linejoin="round"/>
<path fill-rule="evenodd" clip-rule="evenodd" d="M620 540L620.82 510.02L643.5 521.36L620 540Z" fill="#1E1E1E"/>
<path d="M620 540C620.26 530.52 620.52 521.06 620.82 510.02M620 540C620.2 532.52 620.4 525.06 620.82 510.02M620 540C625.42 535.7 634.46 528.52 643.5 521.36M620 540C632.2 530.32 637.86 525.84 643.5 521.36M620.82 510.02C628.92 514.06 637.02 518.1 643.5 521.36M620.82 510.02C628.02 513.6 635.22 517.2 643.5 521.36" stroke="#1E1E1E" stroke-width="8" stroke-linecap="round" stroke-linejoin="round"/>
<path d="M740 460C750.6 481.2 761.2 502.38 780 540ZM740 460C751.58 483.14 763.14 506.3 780 540Z" stroke="#1E1E1E" stroke-width="8" stroke-linecap="round" stroke-linejoin="round"/>
<path fill-rule="evenodd" clip-rule="evenodd" d="M780 540L756.5 521.36L779.18 510.02L780 540Z" fill="#1E1E1E"/>
<path d="M780 540C773.78 535.06 767.56 530.12 756.5 521.36M780 540C773.2 534.6 766.4 529.2 756.5 521.36M780 540C779.66 527.24 779.42 518.62 779.18 510.02M780 540C779.6 525.02 779.38 517.52 779.18 510.02M756.5 521.36C761.56 518.82 766.64 516.28 779.18 510.02M756.5 521.36C761.28 518.96 766.06 516.58 779.18 510.02" stroke="#1E1E1E" stroke-width="8" stroke-linecap="round" stroke-linejoin="round"/>
<path d="M620 700C632.76 725.5 645.5 751.02 660 780ZM620 700C628.78 717.58 637.58 735.14 660 780Z" stroke="#1E1E1E" stroke-width="8" stroke-linecap="round" stroke-linejoin="round"/>
<path fill-rule="evenodd" clip-rule="evenodd" d="M660 780L636.5 761.36L659.18 750.02L660 780Z" fill="#1E1E1E"/>
<path d="M660 780C652.5 774.06 645.02 768.1 636.5 761.36M660 780C654.84 775.9 649.68 771.8 636.5 761.36M660 780C659.76 771.2 659.48 760.6 659.18 750.02M660 780C659.72 770.1 659.46 760.06 659.18 750.02M636.5 761.36C643.64 757.78 650.78 754.22 659.18 750.02M636.5 761.36C642.76 758.22 649.02 755.1 659.18 750.02" stroke="#1E1E1E" stroke-width="8" stroke-linecap="round" stroke-linejoin="round"/>
<path d="M540 700C524.82 730.36 509.64 760.72 500 780ZM540 700C529.38 721.24 518.76 742.5 500 780Z" stroke="#1E1E1E" stroke-width="8" stroke-linecap="round" stroke-linejoin="round"/>
<path fill-rule="evenodd" clip-rule="evenodd" d="M500 780L500.82 750.02L523.5 761.36L500 780Z" fill="#1E1E1E"/>
<path d="M500 780C500.32 768.62 500.62 757.24 500.82 750.02M500 780C500.22 772.04 500.44 764.08 500.82 750.02M500 780C511.02 771.24 517.26 766.3 523.5 761.36M500 780C510.22 771.88 516.86 766.62 523.5 761.36M500.82 750.02C505.88 752.54 510.94 755.08 523.5 761.36M500.82 750.02C507.02 753.12 513.22 756.22 523.5 761.36" stroke="#1E1E1E" stroke-width="8" stroke-linecap="round" stroke-linejoin="round"/>
</g>
<defs>
<clipPath id="clip0_190_11932">
<rect width="960" height="1000" rx="16" fill="white"/>
</clipPath>
</defs>
</svg>
